 <svg version="1.0" xmlns="http://www.w3.org/2000/svg"  width="300.000000pt" height="300.000000pt" viewBox="0 0 300.000000 300.000000"  preserveAspectRatio="xMidYMid meet">  <g transform="translate(0.000000,300.000000) scale(0.100000,-0.100000)" fill="#df0c0c" stroke="none"> <path d="M1946 2304 c-70 -22 -140 -94 -162 -169 -16 -56 -15 -79 8 -174 2 -8 -99 -107 -235 -232 l-238 -217 -57 26 c-78 37 -185 38 -256 3 -99 -49 -156 -133 -164 -242 -7 -95 17 -159 82 -224 61 -62 121 -85 217 -85 55 0 77 5 124 30 31 16 62 27 68 23 26 -16 327 -265 334 -276 4 -6 6 -26 4 -44 -3 -43 30 -115 65 -140 129 -92 295 -1 282 154 -5 57 -25 92 -72 127 -22 17 -42 21 -94 20 -37 0 -75 -2 -84 -5 -10 -2 -76 44 -175 123 -198 158 -197 157 -185 199 l8 34 221 3 220 2 24 -47 c16 -31 41 -59 72 -80 120 -81 263 -43 330 87 25 47 28 63 24 113 -7 83 -46 142 -117 180 -49 26 -62 28 -123 24 -85 -6 -140 -40 -177 -110 l-25 -47 -155 1 c-221 2 -304 10 -308 30 -2 10 85 95 239 234 l242 218 51 -19 c108 -39 206 -16 280 66 51 56 66 97 66 175 0 116 -66 208 -171 239 -64 19 -99 19 -163 0z"/> </g> </svg> 