 <svg  version="1.0" xmlns="http://www.w3.org/2000/svg"  width="300.000000pt" height="300.000000pt" viewBox="0 0 300.000000 300.000000"  preserveAspectRatio="xMidYMid meet">  <g transform="translate(0.000000,300.000000) scale(0.100000,-0.100000)" fill="#cf0707" stroke="none"> <path d="M1547 1643 c-9 -10 -14 -28 -11 -38 4 -15 -7 -30 -41 -58 -38 -32 -50 -37 -76 -32 -35 8 -59 -8 -59 -39 0 -35 15 -48 56 -49 33 -2 42 -8 63 -39 26 -40 55 -49 65 -22 8 22 -11 44 -39 44 -26 0 -50 24 -42 43 6 17 62 11 91 -9 26 -18 58 0 54 29 -3 23 -3 23 -100 11 -27 -3 -48 -3 -48 2 0 4 19 23 42 43 31 26 51 36 76 36 43 0 60 23 46 62 -12 35 -52 43 -77 16z"/> </g> </svg> 