<?xml version="1.0" standalone="no"?>
<!DOCTYPE svg PUBLIC "-//W3C//DTD SVG 20010904//EN"
 "http://www.w3.org/TR/2001/REC-SVG-20010904/DTD/svg10.dtd">
<svg version="1.0" xmlns="http://www.w3.org/2000/svg"
 width="900.000000pt" height="900.000000pt" viewBox="0 0 900.000000 900.000000"
 preserveAspectRatio="xMidYMid meet">
<metadata>
Created by potrace 1.10, written by Peter Selinger 2001-2011
</metadata>
<g transform="translate(0.000000,900.000000) scale(0.100000,-0.100000)"
fill="#e60a0a" stroke="none">
<path d="M4974 5525 c-10 -8 -27 -15 -37 -15 -10 0 -25 -6 -34 -12 -36 -28
-113 -111 -113 -122 0 -7 -6 -18 -12 -24 -24 -24 -34 -131 -19 -196 l15 -59
-30 -24 c-16 -13 -35 -28 -42 -34 -7 -5 -43 -31 -80 -56 -37 -25 -71 -52 -75
-59 -4 -8 -13 -14 -19 -14 -5 0 -27 -13 -48 -30 -21 -16 -41 -30 -45 -30 -11
0 -167 -122 -212 -167 -24 -24 -51 -43 -60 -43 -8 0 -32 14 -53 30 -21 17 -46
30 -57 30 -11 0 -28 7 -39 15 -39 30 -217 14 -284 -26 -8 -5 -22 -12 -30 -16
-46 -20 -122 -90 -140 -128 -6 -11 -14 -27 -19 -35 -38 -66 -41 -81 -41 -179
0 -65 5 -112 14 -133 8 -18 17 -40 21 -48 7 -17 22 -42 49 -83 22 -33 128
-117 148 -117 7 0 24 -8 38 -17 19 -14 46 -17 142 -16 126 1 165 13 233 67
l29 24 76 -57 c94 -71 327 -226 360 -240 59 -25 81 -46 73 -68 -9 -24 19 -96
51 -132 81 -89 204 -93 293 -9 33 31 63 102 63 149 0 104 -106 209 -211 209
-44 0 -113 -31 -122 -55 -12 -29 -34 -15 -133 81 -102 98 -160 143 -298 227
-51 32 -51 32 -31 67 8 14 14 37 15 51 0 15 6 29 13 31 6 3 155 1 331 -3 288
-8 320 -10 332 -26 7 -10 14 -25 14 -33 0 -22 68 -86 115 -110 50 -26 195 -29
215 -5 7 8 19 15 27 15 16 0 93 71 93 86 0 4 6 15 13 23 8 9 19 42 26 74 28
129 -38 249 -172 310 -45 21 -123 22 -157 2 -14 -8 -34 -14 -44 -15 -20 0
-116 -92 -116 -110 0 -6 -7 -25 -16 -42 -15 -29 -18 -30 -62 -25 -26 3 -83 13
-127 23 -44 9 -96 16 -115 15 -19 -1 -109 -4 -199 -7 -154 -5 -165 -4 -182 15
-30 32 -24 56 24 84 23 14 54 36 67 49 14 13 48 41 75 63 28 22 59 47 70 56
95 79 121 100 130 107 53 38 185 149 185 155 0 14 19 7 45 -17 61 -56 213 -79
300 -44 49 20 148 107 171 151 9 17 22 61 28 97 31 168 -40 295 -208 372 -49
23 -183 25 -212 3z m251 -156 c44 -45 55 -64 64 -109 20 -102 -19 -186 -113
-239 -63 -35 -91 -38 -167 -15 -157 47 -155 45 -154 164 1 114 20 163 80 210
61 46 71 49 163 47 l74 -2 53 -56z m-1172 -776 c45 -14 99 -28 120 -30 36 -5
37 -6 37 -45 0 -42 18 -86 45 -108 9 -7 23 -29 31 -48 13 -33 13 -36 -16 -68
-49 -56 -63 -92 -57 -147 5 -56 14 -49 -123 -93 -55 -18 -115 -29 -171 -32
-79 -4 -89 -2 -145 26 -85 43 -139 111 -161 202 -10 41 -11 66 -5 152 3 44 87
144 154 184 34 19 66 33 72 31 6 -2 20 0 31 4 28 12 92 2 188 -28z m1282 -148
c43 -43 45 -47 45 -105 0 -51 -4 -67 -27 -96 -16 -20 -40 -42 -55 -50 -33 -17
-96 -18 -134 -1 -41 18 -144 117 -144 137 0 21 86 112 132 140 22 13 51 20 86
20 49 0 56 -3 97 -45z m-418 -725 c71 -32 71 -107 1 -145 -35 -18 -38 -19 -72
-3 -30 15 -38 26 -51 73 -22 73 -15 82 70 93 6 1 29 -7 52 -18z"/>
</g>
</svg>
